HIERARCHY
ROOT Bip01
{
  OFFSET 15.7446 31.5610 57.6474
  CHANNELS 6 Xposition Yposition Zposition Zrotation Xrotation Yrotation
  JOINT Bip01_Footsteps
  {
    OFFSET 53.2821 -0.0001 8.1953
    CHANNELS 6 Xposition Yposition Zposition Zrotation Xrotation Yrotation
    End Site
    {
      OFFSET 0 0 0
    }
  }
  JOINT b_Hips
  {
    OFFSET 0.0000 0.0000 0.0000
    CHANNELS 6 Xposition Yposition Zposition Zrotation Xrotation Yrotation
    JOINT b_Spine
    {
      OFFSET 10.4409 -1.6220 0.0000
      CHANNELS 6 Xposition Yposition Zposition Zrotation Xrotation Yrotation
      JOINT b_Spine1
      {
        OFFSET 8.8514 -0.0090 0.0000
        CHANNELS 6 Xposition Yposition Zposition Zrotation Xrotation Yrotation
        JOINT b_Spine2
        {
          OFFSET 11.3035 -0.0088 -0.0000
          CHANNELS 6 Xposition Yposition Zposition Zrotation Xrotation Yrotation
          JOINT b_Spine3
          {
            OFFSET 11.0297 -0.0113 0.0000
            CHANNELS 6 Xposition Yposition Zposition Zrotation Xrotation Yrotation
            JOINT b__Neck
            {
              OFFSET 14.9480 -3.1935 0.0000
              CHANNELS 6 Xposition Yposition Zposition Zrotation Xrotation Yrotation
              JOINT b__Neck1
              {
                OFFSET 5.4958 -0.0043 -0.0000
                CHANNELS 6 Xposition Yposition Zposition Zrotation Xrotation Yrotation
                JOINT b__Neck2
                {
                  OFFSET 5.5266 -0.0049 0.0000
                  CHANNELS 6 Xposition Yposition Zposition Zrotation Xrotation Yrotation
                  JOINT b_Head
                  {
                    OFFSET 6.1093 0.0000 -0.0000
                    CHANNELS 6 Xposition Yposition Zposition Zrotation Xrotation Yrotation
                    JOINT Bip01_HeadNub
                    {
                      OFFSET 28.6688 0.0000 -0.0000
                      CHANNELS 6 Xposition Yposition Zposition Zrotation Xrotation Yrotation
                      End Site
                      {
                        OFFSET 0 0 0
                      }
                    }
                    JOINT Dog_Jaw
                    {
                      OFFSET 0.6075 2.3575 -0.0000
                      CHANNELS 6 Xposition Yposition Zposition Zrotation Xrotation Yrotation
                      End Site
                      {
                        OFFSET 0 0 0
                      }
                    }
                  }
                }
              }
            }
            JOINT b_LeftClav
            {
              OFFSET 10.4683 2.1257 3.5190
              CHANNELS 6 Xposition Yposition Zposition Zrotation Xrotation Yrotation
              JOINT b_LeftArm
              {
                OFFSET 7.3453 0.0000 0.0000
                CHANNELS 6 Xposition Yposition Zposition Zrotation Xrotation Yrotation
                JOINT b_LeftForeArm
                {
                  OFFSET 23.3863 -0.0000 0.0000
                  CHANNELS 6 Xposition Yposition Zposition Zrotation Xrotation Yrotation
                  JOINT b_LeftHand
                  {
                    OFFSET 21.5040 0.0000 0.0000
                    CHANNELS 6 Xposition Yposition Zposition Zrotation Xrotation Yrotation
                    JOINT b__LeftFinger
                    {
                      OFFSET 1.5926 6.2126 -0.0138
                      CHANNELS 6 Xposition Yposition Zposition Zrotation Xrotation Yrotation
                      JOINT Bip01_L_Finger0Nub
                      {
                        OFFSET 23.3657 0.0000 0.0000
                        CHANNELS 6 Xposition Yposition Zposition Zrotation Xrotation Yrotation
                        End Site
                        {
                          OFFSET 0 0 0
                        }
                      }
                    }
                  }
                }
                JOINT Dog_LeftArmor002
                {
                  OFFSET 4.2035 4.4457 12.7354
                  CHANNELS 6 Xposition Yposition Zposition Zrotation Xrotation Yrotation
                  End Site
                  {
                    OFFSET 0 0 0
                  }
                }
              }
            }
            JOINT b_RightClav
            {
              OFFSET 10.4683 2.1257 -3.5189
              CHANNELS 6 Xposition Yposition Zposition Zrotation Xrotation Yrotation
              JOINT b_RightArm
              {
                OFFSET 7.3453 -0.0000 -0.0000
                CHANNELS 6 Xposition Yposition Zposition Zrotation Xrotation Yrotation
                JOINT b_RightForeArm
                {
                  OFFSET 23.3863 0.0000 0.0000
                  CHANNELS 6 Xposition Yposition Zposition Zrotation Xrotation Yrotation
                  JOINT b_RightHand
                  {
                    OFFSET 21.5040 0.0000 0.0000
                    CHANNELS 6 Xposition Yposition Zposition Zrotation Xrotation Yrotation
                    JOINT b_RightFinger
                    {
                      OFFSET 1.5926 6.2126 0.0138
                      CHANNELS 6 Xposition Yposition Zposition Zrotation Xrotation Yrotation
                      JOINT Bip01_R_Finger0Nub
                      {
                        OFFSET 23.3657 0.0000 0.0000
                        CHANNELS 6 Xposition Yposition Zposition Zrotation Xrotation Yrotation
                        End Site
                        {
                          OFFSET 0 0 0
                        }
                      }
                    }
                  }
                }
                JOINT Dog_RightArmor002
                {
                  OFFSET 4.2034 4.4457 -12.7351
                  CHANNELS 6 Xposition Yposition Zposition Zrotation Xrotation Yrotation
                  End Site
                  {
                    OFFSET 0 0 0
                  }
                }
              }
            }
          }
        }
      }
    }
    JOINT b_Tail001
    {
      OFFSET -4.7889 3.8598 0.8608
      CHANNELS 6 Xposition Yposition Zposition Zrotation Xrotation Yrotation
      JOINT b_Tail002
      {
        OFFSET 4.2212 0.0000 -0.0000
        CHANNELS 6 Xposition Yposition Zposition Zrotation Xrotation Yrotation
        JOINT b_Tail003
        {
          OFFSET 4.9750 0.0000 -0.0000
          CHANNELS 6 Xposition Yposition Zposition Zrotation Xrotation Yrotation
          JOINT b_Tail004
          {
            OFFSET 4.7171 -0.0000 0.0000
            CHANNELS 6 Xposition Yposition Zposition Zrotation Xrotation Yrotation
            JOINT b_Tail005
            {
              OFFSET 9.7173 -0.0000 -0.0001
              CHANNELS 6 Xposition Yposition Zposition Zrotation Xrotation Yrotation
              JOINT b_Tail006
              {
                OFFSET 8.2617 0.0001 0.0000
                CHANNELS 6 Xposition Yposition Zposition Zrotation Xrotation Yrotation
                JOINT b_Tail007
                {
                  OFFSET 9.7599 -0.0001 0.0000
                  CHANNELS 6 Xposition Yposition Zposition Zrotation Xrotation Yrotation
                  JOINT b_Tail008
                  {
                    OFFSET 11.1530 0.0000 -0.0000
                    CHANNELS 6 Xposition Yposition Zposition Zrotation Xrotation Yrotation
                    JOINT b_Tail009
                    {
                      OFFSET 10.3039 0.0000 0.0000
                      CHANNELS 6 Xposition Yposition Zposition Zrotation Xrotation Yrotation
                      End Site
                      {
                        OFFSET 0 0 0
                      }
                    }
                  }
                }
              }
            }
          }
        }
      }
    }
    JOINT Dog_LeftTail001
    {
      OFFSET -11.9878 -1.7857 10.1900
      CHANNELS 6 Xposition Yposition Zposition Zrotation Xrotation Yrotation
      JOINT Dog_LeftTail002
      {
        OFFSET 8.4424 0.0000 0.0000
        CHANNELS 6 Xposition Yposition Zposition Zrotation Xrotation Yrotation
        JOINT Dog_LeftTail003
        {
          OFFSET 9.9501 0.0000 -0.0000
          CHANNELS 6 Xposition Yposition Zposition Zrotation Xrotation Yrotation
          JOINT Dog_LeftTail004
          {
            OFFSET 9.4342 0.0000 -0.0000
            CHANNELS 6 Xposition Yposition Zposition Zrotation Xrotation Yrotation
            JOINT Dog_LeftTail005
            {
              OFFSET 9.7173 0.0001 0.0001
              CHANNELS 6 Xposition Yposition Zposition Zrotation Xrotation Yrotation
              JOINT Dog_LeftTail006
              {
                OFFSET 8.2618 -0.0000 -0.0000
                CHANNELS 6 Xposition Yposition Zposition Zrotation Xrotation Yrotation
                JOINT Dog_LeftTail007
                {
                  OFFSET 9.7599 0.0000 0.0000
                  CHANNELS 6 Xposition Yposition Zposition Zrotation Xrotation Yrotation
                  JOINT Dog_LeftTail008
                  {
                    OFFSET 11.1529 -0.0001 -0.0001
                    CHANNELS 6 Xposition Yposition Zposition Zrotation Xrotation Yrotation
                    JOINT Dog_LeftTail009
                    {
                      OFFSET 10.3039 -0.0000 0.0000
                      CHANNELS 6 Xposition Yposition Zposition Zrotation Xrotation Yrotation
                      End Site
                      {
                        OFFSET 0 0 0
                      }
                    }
                  }
                }
              }
            }
          }
        }
      }
    }
    JOINT b_LeftLegUpper
    {
      OFFSET -0.0000 0.0000 9.9422
      CHANNELS 6 Xposition Yposition Zposition Zrotation Xrotation Yrotation
      JOINT b_LeftLeg
      {
        OFFSET 25.9795 0.0000 0.0000
        CHANNELS 6 Xposition Yposition Zposition Zrotation Xrotation Yrotation
        JOINT b_LeftLeg1
        {
          OFFSET 21.2087 0.0000 -0.0000
          CHANNELS 6 Xposition Yposition Zposition Zrotation Xrotation Yrotation
          JOINT b_LeftAnkle
          {
            OFFSET 10.4341 -0.0000 0.0000
            CHANNELS 6 Xposition Yposition Zposition Zrotation Xrotation Yrotation
            JOINT b_LeftToe
            {
              OFFSET 5.6676 6.5983 -0.0000
              CHANNELS 6 Xposition Yposition Zposition Zrotation Xrotation Yrotation
              JOINT Bip01_L_Toe0Nub
              {
                OFFSET 8.6279 -0.0000 0.0000
                CHANNELS 6 Xposition Yposition Zposition Zrotation Xrotation Yrotation
                End Site
                {
                  OFFSET 0 0 0
                }
              }
            }
            JOINT b_LeftToe002
            {
              OFFSET 5.6741 -2.3619 -0.5306
              CHANNELS 6 Xposition Yposition Zposition Zrotation Xrotation Yrotation
              End Site
              {
                OFFSET 0 0 0
              }
            }
          }
        }
      }
      JOINT Dog_LeftArmor001
      {
        OFFSET -2.6287 -3.4254 -3.1462
        CHANNELS 6 Xposition Yposition Zposition Zrotation Xrotation Yrotation
        End Site
        {
          OFFSET 0 0 0
        }
      }
    }
    JOINT b_RightLegUpper
    {
      OFFSET 0.0000 -0.0000 -9.9422
      CHANNELS 6 Xposition Yposition Zposition Zrotation Xrotation Yrotation
      JOINT b_RightLeg
      {
        OFFSET 25.9795 0.0000 0.0000
        CHANNELS 6 Xposition Yposition Zposition Zrotation Xrotation Yrotation
        JOINT b_RightLeg1
        {
          OFFSET 21.2087 0.0000 0.0000
          CHANNELS 6 Xposition Yposition Zposition Zrotation Xrotation Yrotation
          JOINT b_RightAnkle
          {
            OFFSET 10.4341 -0.0000 -0.0000
            CHANNELS 6 Xposition Yposition Zposition Zrotation Xrotation Yrotation
            JOINT b_RightToe
            {
              OFFSET 5.6676 6.5983 -0.0000
              CHANNELS 6 Xposition Yposition Zposition Zrotation Xrotation Yrotation
              JOINT Bip01_R_Toe0Nub
              {
                OFFSET 8.6279 -0.0000 0.0000
                CHANNELS 6 Xposition Yposition Zposition Zrotation Xrotation Yrotation
                End Site
                {
                  OFFSET 0 0 0
                }
              }
            }
            JOINT b_RightToe002
            {
              OFFSET 5.6741 -2.3620 0.5304
              CHANNELS 6 Xposition Yposition Zposition Zrotation Xrotation Yrotation
              End Site
              {
                OFFSET 0 0 0
              }
            }
          }
        }
      }
      JOINT Dog_RightArmor001
      {
        OFFSET -2.6288 -3.4254 3.1460
        CHANNELS 6 Xposition Yposition Zposition Zrotation Xrotation Yrotation
        End Site
        {
          OFFSET 0 0 0
        }
      }
    }
  }
}
MOTION
Frames: 4
Frame Time: 0.00833333
-66.7767 58.9614 231.293 88.93 -2.34931 -159.92 53.2821 -6.35e-05 8.19533 -90 -81.2558 -180 0 0 0 -89.9999 -4.1675e-14 -90 10.4409 -1.622 1.78e-05 -10.8008 -0.508859 -4.86851 8.8514 -0.0089989 -1.42109e-14 -2.1057 4.52812 -3.32708 11.3035 -0.0087814 0 -1.18121 3.51218 -3.00726 11.0297 -0.0113029 0 1.24832 2.09604 -1.75633 14.948 -3.19349 8.6e-06 -30.3727 -30.0454 -15.8458 5.49578 -0.0042877 1.42109e-14 14.4702 1.81553 40.1308 5.52657 -0.0048637 0 -2.28047 4.69571 -1.2463 6.10934 0 0 35.7564 -4.1081 14.2863 28.6688 7.10543e-15 0 -3.18055e-15 -3.18055e-15 -9.54166e-15 0.607494 2.35752 -7.6e-06 -156.427 -0.000147608 180 10.4683 2.1257 3.51896 -170.062 1.61477 -107.689 7.34534 0 1.9e-06 73.8969 -66.9226 177.436 23.3863 -1.9e-06 1e-06 -34.3359 0.193333 -1.37175 21.504 0 2.84217e-14 23.5667 2.87008 5.16903 1.59262 6.21256 -0.0138378 1.58127 -16.462 1.82371 23.3657 -1.42109e-14 1e-06 -0 0 -7.95139e-16 4.20345 4.44573 12.7354 172.377 0.21838 -87.1877 10.4683 2.12572 -3.51895 177.406 12.5671 99.2667 7.34534 0 -1.9e-06 -4.8282 77.1327 -88.0468 23.3863 1.9e-06 2.84217e-14 -28.1946 3.18055e-15 3.97569e-16 21.504 3.8e-06 1e-06 -119.506 -22.4517 7.17558 1.59262 6.21257 0.0138388 -19.4009 -5.67575 3.57859 23.3657 0 1e-06 180 9.54166e-15 1.59028e-14 4.20337 4.4457 -12.7351 172.377 -0.218352 87.1876 -4.78895 3.85983 0.86083 -179.482 9.66974 6.49972 4.22117 3.815e-05 -5.7e-06 -19.6641 -19.2825 -3.83769 4.97505 3.8e-06 -6.7e-06 -33.7114 -10.0737 6.35004 4.7171 -1.145e-05 2.86e-05 6.36111e-15 7.95139e-16 -3.18055e-15 9.71734 -4.2e-05 -5.72e-05 4.41391e-32 1.59028e-15 -1.59028e-15 8.26175 8.01e-05 5.7e-06 3.18055e-15 -2.38542e-15 -1.59028e-15 9.75986 -6.48e-05 2.86e-05 3.18055e-15 -1.59028e-15 1.59028e-15 11.153 2.67e-05 -2.1e-05 -3.18055e-15 7.95139e-16 -1.59028e-15 10.3039 1.14e-05 4.2e-05 -3.18055e-15 -5.56597e-15 -0 -11.9878 -1.78568 10.19 170.606 3.62573 1.11034 8.44238 1.53e-05 4.2e-05 1.59028e-15 3.35449e-16 -9.93923e-17 9.95005 7.6e-06 -2.86e-05 1.59028e-15 -8.07563e-16 2.98177e-16 9.43418 7.10543e-15 -4.58e-05 1.59028e-15 -8.07563e-16 1.98785e-16 9.71733 6.87e-05 0.0001106 2.75869e-33 -7.95139e-16 1.98785e-16 8.26175 -2.29e-05 -4.77e-05 -0 0 9.93923e-17 9.75994 2.86e-05 3.05e-05 -0 -3.72721e-17 -0 11.1529 -7.25e-05 -5.91e-05 -0 3.47873e-16 -0 10.3039 -7.6e-06 0 1.59028e-15 -7.45443e-17 -9.93923e-17 -1.14e-05 1.53e-05 9.94222 -127.718 15.6246 -176.807 25.9795 1e-06 -1.42109e-14 -32.7117 -0.396382 -1.14401 21.2087 1.9e-06 -1e-06 63.2721 14.1979 -17.8081 10.4341 -1.9e-06 1e-06 -12.1684 -2.62892 4.47317 5.66763 6.59832 0 91.3696 20.1483 -10.4793 8.62785 0 0 -180 -2.85753e-14 2.18663e-15 5.67414 -2.36194 -0.530567 -75.8081 4.38708 5.33411 -2.62874 -3.42539 -3.14618 29.7499 1.82752 90.2264 1.53e-05 -1.53e-05 -9.94222 -109.31 -16.052 174.21 25.9795 2.84217e-14 1e-06 -33.5758 -0.0026281 2.59737 21.2087 2.84217e-14 1.9e-06 48.9422 -26.2741 19.932 10.4341 -1.9e-06 -1e-06 -9.58881 3.96483 -5.82461 5.66763 6.59831 0 88.6648 -2.47499 1.35719 8.62785 -4.44089e-16 1.42109e-14 -4.96962e-17 -1.27346e-16 -1.59028e-15 5.67412 -2.36198 0.530355 -75.808 -4.38692 -5.33418 -2.62878 -3.42545 3.14601 29.7498 -1.82753 -90.2266
-67.0109 59.1481 229.456 88.8547 -2.91177 -159.497 53.2821 -6.35e-05 8.19533 -90 -81.2558 -180 0 0 0 -89.9999 -5.43972e-14 -90 10.4409 -1.622 1.78e-05 -10.8346 -0.979849 -5.47755 8.8514 -0.0089989 0 -2.33025 4.11822 -3.57315 11.3035 -0.0087814 -1.42109e-14 -1.29696 3.35528 -3.01009 11.0297 -0.0113029 1.42109e-14 1.11142 1.97549 -1.31737 14.948 -3.19349 8.6e-06 -29.9147 -27.209 -17.6706 5.49578 -0.0042877 1.42109e-14 14.9363 0.961554 44.3224 5.52657 -0.0048637 0 -2.31999 4.0298 -1.2888 6.10934 0 7.10543e-15 35.7037 -4.52326 14.7182 28.6688 7.10543e-15 -7.10543e-15 3.18055e-15 -3.18055e-15 -3.18055e-15 0.607494 2.35752 -7.6e-06 -156.427 -0.000147608 180 10.4683 2.1257 3.51896 -170.992 1.10137 -107.671 7.34534 -2.13163e-14 1.9e-06 72.8067 -68.612 176.347 23.3863 -1.9e-06 1e-06 -39.7938 0.322953 -1.34714 21.504 0 0 23.0189 2.82045 5.19622 1.59262 6.21256 -0.0138378 1.34854 -13.8078 3.72639 23.3657 0 1e-06 -3.97569e-16 3.18055e-15 1.98785e-16 4.20345 4.44573 12.7354 172.377 0.21838 -87.1877 10.4683 2.12572 -3.51895 178.569 11.7101 97.2162 7.34534 7.10543e-15 -1.9e-06 -15.2636 75.981 -77.5182 23.3863 1.9e-06 0 -28.4687 3.18055e-15 3.18055e-15 21.504 3.8e-06 1e-06 -119.713 -22.0808 7.99727 1.59262 6.21257 0.0138388 -19.6822 -6.48869 3.54774 23.3657 0 1e-06 180 4.77083e-15 5.56597e-15 4.20337 4.4457 -12.7351 172.377 -0.218352 87.1876 -4.78895 3.85983 0.86083 -178.013 9.67668 4.67293 4.22117 3.815e-05 -5.7e-06 -19.8716 -19.3669 -4.71647 4.97505 3.8e-06 -6.7e-06 -33.018 -9.98416 6.18051 4.7171 -1.145e-05 2.86e-05 -0 -3.97569e-15 -0 9.71734 -4.2e-05 -5.72e-05 -0 -7.15625e-15 -0 8.26175 8.01e-05 5.7e-06 -0 -4.77083e-15 -0 9.75986 -6.48e-05 2.86e-05 -0 3.97569e-15 -0 11.153 2.67e-05 -2.1e-05 -0 -3.97569e-15 -0 10.3039 1.14e-05 4.2e-05 8.82781e-32 -3.18055e-15 1.59028e-15 -11.9878 -1.78568 10.19 170.606 3.62573 1.11034 8.44238 1.53e-05 4.2e-05 3.7932e-33 -5.46658e-16 3.97569e-16 9.95005 7.6e-06 -2.86e-05 -3.18055e-15 -1.98785e-16 1.98785e-16 9.43418 1.42109e-14 -4.58e-05 -0 -6.4605e-16 -0 9.71733 6.87e-05 0.0001106 -1.59028e-15 9.93923e-17 -0 8.26175 -2.29e-05 -4.77e-05 -3.18055e-15 0 -3.97569e-16 9.75994 2.86e-05 3.05e-05 1.20693e-33 -3.47873e-16 1.98785e-16 11.1529 -7.25e-05 -5.91e-05 -3.18055e-15 -4.96962e-17 1.98785e-16 10.3039 -7.6e-06 1.42109e-14 1.63797e-33 -4.72114e-16 1.98785e-16 -1.14e-05 1.53e-05 9.94222 -127.767 15.8048 -177.448 25.9795 1e-06 0 -28.341 -0.482422 -1.11047 21.2087 1.9e-06 -1e-06 60.9656 15.2293 -17.9261 10.4341 -1.9e-06 1e-06 -11.808 -2.6007 4.48961 5.66763 6.59832 1.42109e-14 92.4826 19.3839 -9.9627 8.62785 -1.42109e-14 -1.42109e-14 -180 7.85199e-15 -4.07509e-15 5.67414 -2.36194 -0.530567 -75.8081 4.38708 5.33411 -2.62874 -3.42539 -3.14618 29.7499 1.82752 90.2264 1.53e-05 -1.53e-05 -9.94222 -108.416 -16.1043 173.735 25.9795 0 1e-06 -32.8294 0.0312305 2.59718 21.2087 0 1.9e-06 46.9725 -26.3408 19.6424 10.4341 -1.9e-06 -1e-06 -9.8415 5.74594 -5.34146 5.66763 6.59831 1.42109e-14 89.9877 -3.33342 1.83393 8.62785 0 0 -3.97569e-16 -3.23025e-16 -7.95139e-16 5.67412 -2.36198 0.530355 -75.808 -4.38692 -5.33418 -2.62878 -3.42545 3.14601 29.7498 -1.82753 -90.2266
-67.2346 59.3063 227.629 88.8253 -3.38555 -159.146 53.2821 -6.35e-05 8.19533 -90 -81.2558 -180 0 0 0 -89.9999 -4.1675e-14 -90 10.4409 -1.622 1.78e-05 -10.833 -1.41716 -6.11117 8.8514 -0.0089989 -1.42109e-14 -2.57218 3.71099 -3.74781 11.3035 -0.0087814 0 -1.41582 3.18389 -2.96384 11.0297 -0.0113029 1.42109e-14 0.975202 1.81625 -0.856259 14.948 -3.19349 8.6e-06 -29.5077 -25.1673 -18.9817 5.49578 -0.0042877 -1.42109e-14 15.4225 0.476402 47.6995 5.52657 -0.0048637 0 -2.38163 3.54551 -1.32381 6.10934 0 -7.10543e-15 35.6531 -4.84604 15.0287 28.6688 7.10543e-15 0 -7.06225e-31 6.36111e-15 6.36111e-15 0.607494 2.35752 -7.6e-06 -156.427 -0.000147608 180 10.4683 2.1257 3.51896 -171.84 0.557763 -107.779 7.34534 0 1.9e-06 72.1092 -69.9477 175.493 23.3863 -1.9e-06 1e-06 -44.7834 0.438914 -1.31394 21.504 2.84217e-14 0 20.1899 2.5601 5.32903 1.59262 6.21256 -0.0138378 1.41112 -14.1635 5.6596 23.3657 1.42109e-14 1e-06 7.95139e-16 -6.36111e-15 7.95139e-16 4.20345 4.44573 12.7354 172.377 0.21838 -87.1877 10.4683 2.12572 -3.51895 179.661 10.6711 95.0631 7.34534 7.10543e-15 -1.9e-06 -24.735 74.2788 -67.7312 23.3863 1.9e-06 0 -28.6438 3.18055e-15 3.18055e-15 21.504 3.8e-06 1e-06 -119.61 -21.5411 8.86277 1.59262 6.21257 0.0138388 -19.4946 -6.82452 3.48166 23.3657 0 1e-06 180 1.82882e-14 8.34896e-15 4.20337 4.4457 -12.7351 172.377 -0.218352 87.1876 -4.78895 3.85983 0.86083 -176.394 9.60155 2.72611 4.22117 3.815e-05 -5.7e-06 -19.8815 -19.7095 -5.83154 4.97505 3.8e-06 -6.7e-06 -32.2854 -9.87118 6.0219 4.7171 -1.145e-05 2.86e-05 3.18055e-15 0 -0 9.71734 -4.2e-05 -5.72e-05 3.18055e-15 -3.18055e-15 -7.95139e-16 8.26175 8.01e-05 5.7e-06 -3.18055e-15 -3.18055e-15 -7.95139e-16 9.75986 -6.48e-05 2.86e-05 -0 -6.36111e-15 -0 11.153 2.67e-05 -2.1e-05 -0 1.98785e-15 -0 10.3039 1.14e-05 4.2e-05 6.36111e-15 -3.97569e-15 -0 -11.9878 -1.78568 10.19 170.606 3.62573 1.11034 8.44238 1.53e-05 4.2e-05 -4.77083e-15 -6.95746e-16 -1.98785e-16 9.95005 7.6e-06 -2.86e-05 -3.18055e-15 -6.95746e-16 -1.98785e-16 9.43418 0 -4.58e-05 -3.18055e-15 -6.95746e-16 -1.98785e-16 9.71733 6.87e-05 0.0001106 -3.18055e-15 -2.98177e-16 3.97569e-16 8.26175 -2.29e-05 -4.77e-05 -4.77083e-15 -9.93923e-17 1.98785e-16 9.75994 2.86e-05 3.05e-05 -3.18055e-15 2.48481e-16 1.98785e-16 11.1529 -7.25e-05 -5.91e-05 -3.18055e-15 4.96962e-17 1.98785e-16 10.3039 -7.6e-06 -1.42109e-14 -1.59028e-15 0 1.98785e-16 -1.14e-05 1.53e-05 9.94222 -127.678 15.5558 -178.112 25.9795 1e-06 1.42109e-14 -24.2364 -0.560676 -1.07309 21.2087 1.9e-06 -1e-06 58.5779 15.5396 -17.6703 10.4341 -1.9e-06 1e-06 -11.2889 -2.55987 4.51298 5.66763 6.59832 -7.10543e-15 93.7095 18.894 -9.46345 8.62785 -1.42109e-14 0 -180 -1.03865e-14 -8.15017e-15 5.67414 -2.36194 -0.530567 -75.8081 4.38708 5.33411 -2.62874 -3.42539 -3.14618 29.7499 1.82752 90.2264 1.53e-05 -1.53e-05 -9.94222 -107.574 -16.2991 173.308 25.9795 -2.84217e-14 1e-06 -32.2181 0.0589546 2.5967 21.2087 -2.84217e-14 1.9e-06 44.8629 -25.7258 19.0935 10.4341 -1.9e-06 -1e-06 -10.4447 8.53178 -4.49561 5.66763 6.59831 0 91.3473 -3.96884 2.17705 8.62785 0 0 -7.95139e-16 -2.48481e-16 -0 5.67412 -2.36198 0.530355 -75.808 -4.38692 -5.33418 -2.62878 -3.42545 3.14601 29.7498 -1.82753 -90.2266
-67.4518 59.4335 225.812 88.8478 -3.75845 -158.88 53.2821 -6.35e-05 8.19533 -90 -81.2558 -180 0 0 0 -89.9999 -4.1675e-14 -90 10.4409 -1.622 1.78e-05 -10.7751 -1.78476 -6.74104 8.8514 -0.0089989 1.42109e-14 -2.82687 3.31401 -3.83707 11.3035 -0.0087814 0 -1.53884 2.99442 -2.88548 11.0297 -0.0113029 0 0.836126 1.63465 -0.395598 14.948 -3.19349 8.6e-06 -29.2626 -23.535 -19.9589 5.49578 -0.0042877 0 15.9653 0.219314 50.4665 5.52657 -0.0048637 -1.42109e-14 -2.45932 3.09383 -1.34642 6.10934 -1.42109e-14 -1.42109e-14 35.6257 -5.11619 15.2605 28.6688 7.10543e-15 -1.42109e-14 1.59028e-15 -1.59028e-15 -1.27222e-14 0.607494 2.35752 -7.6e-06 -156.427 -0.000147608 180 10.4683 2.1257 3.51896 -172.671 0.0830227 -107.844 7.34534 0 1.9e-06 71.857 -70.8437 174.97 23.3863 -1.9e-06 1e-06 -49.2664 0.540287 -1.27562 21.504 0 -1.42109e-14 16.0331 2.16625 5.50051 1.59262 6.21256 -0.0138378 2.60098 -19.4392 7.16287 23.3657 1.42109e-14 1e-06 -1.59028e-15 0 3.18055e-15 4.20345 4.44573 12.7354 172.377 0.21838 -87.1877 10.4683 2.12572 -3.51895 -179.311 9.50123 92.8175 7.34534 -3.55271e-15 -1.9e-06 -32.4384 72.1065 -59.5055 23.3863 1.9e-06 0 -28.7204 -6.36111e-15 1.19271e-15 21.504 3.8e-06 1e-06 -119.238 -20.7604 9.65751 1.59262 6.21257 0.0138388 -19.0398 -6.83203 3.39368 23.3657 -2.84217e-14 1e-06 180 -3.10104e-14 -3.18055e-15 4.20337 4.4457 -12.7351 172.377 -0.218352 87.1876 -4.78895 3.85983 0.86083 -174.819 9.42577 0.630246 4.22117 3.815e-05 -5.7e-06 -19.416 -20.123 -6.94554 4.97505 3.8e-06 -6.7e-06 -31.4629 -9.70592 5.87543 4.7171 -1.145e-05 2.86e-05 3.18055e-15 -2.93207e-15 -3.97569e-16 9.71734 -4.2e-05 -5.72e-05 3.18055e-15 3.52843e-15 3.97569e-16 8.26175 8.01e-05 5.7e-06 3.18055e-15 -4.96962e-17 -5.96354e-16 9.75986 -6.48e-05 2.86e-05 3.18055e-15 -3.47873e-16 -0 11.153 2.67e-05 -2.1e-05 -3.18055e-15 2.93207e-15 -1.98785e-16 10.3039 1.14e-05 4.2e-05 -3.18055e-15 -1.04362e-15 -1.98785e-16 -11.9878 -1.78568 10.19 170.606 3.62573 1.11034 8.44238 1.53e-05 4.2e-05 -1.03451e-33 1.49089e-16 3.97569e-16 9.95005 7.6e-06 -2.86e-05 1.59028e-15 -9.93923e-17 3.97569e-16 9.43418 7.10543e-15 -4.58e-05 -1.59028e-15 0 -3.97569e-16 9.71733 6.87e-05 0.0001106 -2.06902e-33 1.49089e-16 7.95139e-16 8.26175 -2.29e-05 -4.77e-05 1.59028e-15 3.47873e-16 7.95139e-16 9.75994 2.86e-05 3.05e-05 1.59028e-15 2.48481e-16 -0 11.1529 -7.25e-05 -5.91e-05 1.59028e-15 0 7.95139e-16 10.3039 -7.6e-06 -1.42109e-14 3.18055e-15 1.98785e-16 7.95139e-16 -1.14e-05 1.53e-05 9.94222 -127.448 14.937 -178.795 25.9795 1e-06 0 -20.5165 -0.62912 -1.03446 21.2087 1.9e-06 -1e-06 56.1448 15.1361 -16.8128 10.4341 -1.9e-06 1e-06 -10.5514 -2.50152 4.54554 5.66763 6.59832 -7.10543e-15 95.093 18.9796 -9.11606 8.62785 0 0 -180 9.83984e-15 -3.8763e-15 5.67414 -2.36194 -0.530567 -75.8081 4.38708 5.33411 -2.62874 -3.42539 -3.14618 29.7499 1.82752 90.2264 1.53e-05 -1.53e-05 -9.94222 -106.814 -16.5878 172.921 25.9795 2.84217e-14 1e-06 -31.7602 0.0797198 2.59615 21.2087 2.84217e-14 1.9e-06 42.7564 -25.1719 18.4791 10.4341 -1.9e-06 -1e-06 -11.6813 11.5412 -3.54465 5.66763 6.59831 7.10543e-15 92.5763 -4.05053 2.23132 8.62785 -3.55271e-15 1.42109e-14 7.95139e-16 -3.47873e-16 -3.97569e-16 5.67412 -2.36198 0.530355 -75.808 -4.38692 -5.33418 -2.62878 -3.42545 3.14601 29.7498 -1.82753 -90.2266
